<svg xmlns="http://www.w3.org/2000/svg" version="1.1" xmlns:xlink="http://www.w3.org/1999/xlink" xmlns:svgjs="http://svgjs.dev/svgjs" width="1000" height="1000" viewBox="0 0 1000 1000"><rect width="1000" height="1000" fill="#000000"></rect><g transform="matrix(0.7,0,0,0.7,149.57575759185488,433.3887459983715)"><svg viewBox="0 0 396 76" data-background-color="#ffffff" preserveAspectRatio="xMidYMid meet" height="191" width="1000" xmlns="http://www.w3.org/2000/svg" xmlns:xlink="http://www.w3.org/1999/xlink"><g id="tight-bounds" transform="matrix(1,0,0,1,0.24000000910649533,-0.13571079684263054)"><svg viewBox="0 0 395.52 76.2714228078841" height="76.2714228078841" width="395.52"><g><svg viewBox="0 0 520.7637004323879 100.42321090887174" height="76.2714228078841" width="395.52"><g><rect width="3.980614588876124" height="87.19815708440382" x="110.84262880456896" y="6.61252691223396" fill="#ffffff" opacity="1" stroke-width="0" stroke="transparent" fill-opacity="1" class="rect-o-0" data-fill-palette-color="primary" rx="1%" id="o-0" data-palette-color="#1c4b82"></rect></g><g transform="matrix(1,0,0,1,125.24370043238781,13.879040002600945)"><svg viewBox="0 0 395.52 72.66513090366985" height="72.66513090366985" width="395.52"><g><svg viewBox="0 0 395.52 72.66513090366985" height="72.66513090366985" width="395.52"><g><svg viewBox="0 0 395.52 44.14026431718062" height="44.14026431718062" width="395.52"><g transform="matrix(1,0,0,1,0,0)"><svg width="395.52" viewBox="2.5 -36.04999923706055 340.4700012207031 38" height="44.14026431718062" data-palette-color="#1c4b82"><path d="M25.3-33.5Q28.05-33.15 29.9-30.65L29.9-30.65Q29.25-29.7 28.53-29.28 27.8-28.85 26.75-28.8L26.75-28.8Q22.4-28.75 19.33-28.45 16.25-28.15 12.83-26.45 9.4-24.75 8.95-21L8.95-21Q7.6-18.25 7.6-14.55L7.6-14.55Q7.6-12.65 8.05-9.7L8.05-9.7Q8.65-5.9 11.8-5.9L11.8-5.9Q12.6-5.9 13.05-6L13.05-6Q15.7-6.45 18.35-8L18.35-8Q19.85-8.95 21.35-10.18 22.85-11.4 23.15-11.6L23.15-11.6 24.45-12.65Q25-13.15 25.28-13.58 25.55-14 25.55-14.65L25.55-14.65Q25.55-14.9 25.45-15.4L25.45-15.4Q23.75-15.25 20.45-15.05L20.45-15.05 19-14.95Q18.05-14.85 16.15-14.75L16.15-14.75Q14.1-14.75 12.93-15.73 11.75-16.7 11.1-18.95L11.1-18.95Q11.25-19.05 11.45-19.25 11.65-19.45 11.8-19.45L11.8-19.45 13.55-19.65Q19.3-20.35 22.3-20.5L22.3-20.5Q24.75-20.65 28-20.1L28-20.1Q32.5-19.35 32.5-15.95L32.5-15.95Q32.5-14.7 32-13.35L32-13.35Q31.75-12.6 31.2-11.6L31.2-11.6Q30.05-9.15 28.05-7.35 26.05-5.55 23.2-3.9L23.2-3.9Q20.95-2.55 19.25-1.8 17.55-1.05 15.65-0.9L15.65-0.9Q15.2-0.85 14.25-0.85L14.25-0.85Q9.9-0.85 6.35-3.8L6.35-3.8Q4.6-5.3 3.68-7.03 2.75-8.75 2.6-10.95L2.6-10.95Q2.5-12.45 2.5-13.05L2.5-13.05Q2.5-15.9 3.2-18.38 3.9-20.85 5.85-26.1L5.85-26.1Q7.8-30.35 12.15-32.08 16.5-33.8 21.35-33.8L21.35-33.8Q23.4-33.8 25.3-33.5L25.3-33.5ZM46.6-7.8Q46.1-7.5 45.15-7.5L45.15-7.5Q44.8-7.5 44.3-7.55 43.8-7.6 43.45-7.55L43.45-7.55Q43.85-5.9 45.35-4.88 46.85-3.85 48.7-3.85L48.7-3.85Q50.3-3.85 51.55-4.55L51.55-4.55Q53.4-5.5 54.75-6.8L54.75-6.8Q55.7-7.75 56.55-7.75L56.55-7.75Q57.1-7.75 57.5-7.2L57.5-7.2Q57.9-6.55 57.9-5.6L57.9-5.6Q57.9-4.6 57.5-4.05L57.5-4.05Q56.2-2.05 54.12-1.3 52.05-0.55 49.3-0.55L49.3-0.55Q46.45-0.55 43.8-1.8 41.15-3.05 39.27-5.23 37.4-7.4 36.8-10.05L36.8-10.05Q36.4-11.6 36.4-13.1L36.4-13.1Q36.4-15.45 37.72-16.9 39.05-18.35 42-19.65L42-19.65Q44.7-20.8 47-20.8L47-20.8Q48.65-20.8 50.2-20.3L50.2-20.3Q55-18.8 55-16.2L55-16.2Q55-14.55 53.05-12.2L53.05-12.2Q52.1-11.1 50.8-10.25 49.5-9.4 48.27-8.72 47.05-8.05 46.6-7.8L46.6-7.8ZM48.7-17.05Q48.65-17.3 48.32-17.48 48-17.65 47.95-17.7L47.95-17.7Q46.6-17.8 45.2-16.93 43.8-16.05 42.87-14.7 41.95-13.35 41.95-12.1L41.95-12.1 42-11.7Q42.05-11.5 42.52-11.2 43-10.9 43.1-11L43.1-11Q46.65-13.65 48.45-15.25L48.45-15.25Q48.75-15.55 48.75-16.35L48.75-16.35Q48.75-16.85 48.7-17.05L48.7-17.05ZM85.95-13.05Q85.85-14.95 84.35-15.85L84.35-15.85Q83.15-15.55 82.4-15.1 81.65-14.65 81.3-14.23 80.95-13.8 80.05-12.6L80.05-12.6Q79.75-12.2 79.42-11.5 79.1-10.8 79.05-10.65L79.05-10.65Q78.9-10.3 78.9-9.9L78.9-9.9Q78.9-9.6 79.02-8.97 79.15-8.35 79.1-8L79.1-8Q79.05-7.25 79.15-5.65L79.15-5.65 79.2-4.1Q79.2-3.4 79.15-3.05L79.15-3.05Q79.05-2.25 78.65-1.65 78.25-1.05 77.55-1.05L77.55-1.05Q77.3-1.05 76.9-1.2L76.9-1.2Q76.55-1.3 75.75-1.55 74.95-1.8 74.5-2.33 74.05-2.85 74.05-3.85L74.05-3.85Q74.05-6.45 73.55-11.65L73.55-11.65Q73.45-12.2 73.35-13.5L73.35-13.5Q73.3-14.05 72.85-14.35 72.4-14.65 71.75-14.65L71.75-14.65Q70.7-14.65 70.15-14.1L70.15-14.1Q67.85-12.8 66.8-11.15 65.75-9.5 65.75-6.9L65.75-6.9 65.8-5.2Q65.8-3.55 64.95-2.15L64.95-2.15Q64.7-1.7 63.92-1.38 63.15-1.05 62.6-1.15L62.6-1.15Q62.1-1.2 61.57-1.83 61.05-2.45 61.05-2.95L61.05-2.95Q60.9-7.15 60.9-11.3L60.9-11.3Q60.9-15.05 61-16.9L61-16.9Q61.05-17.85 61.65-18.4 62.25-18.95 63.1-18.95L63.1-18.95Q64.2-18.95 65.05-18.15L65.05-18.15Q65.5-17.3 65.8-16.93 66.1-16.55 66.45-16.55L66.45-16.55Q66.75-16.55 67.15-16.88 67.55-17.2 68.25-17.95L68.25-17.95Q69.9-19.75 71.7-19.75L71.7-19.75Q73.65-19.75 76.4-17.8L76.4-17.8Q76.6-17.65 76.95-17.38 77.3-17.1 77.55-17.1L77.55-17.1Q77.9-17.1 78.65-17.9L78.65-17.9Q81.45-20.5 85.75-20.75L85.75-20.75Q87.1-20.8 88.47-19.73 89.85-18.65 90.2-17.15L90.2-17.15Q90.8-14.6 91.05-11.15L91.05-11.15Q91.35-5.95 91.3-3.35L91.3-3.35Q91.25-2.15 90.65-1.48 90.05-0.8 89.1-0.8L89.1-0.8Q88.35-0.8 87.5-1.25L87.5-1.25Q87.15-1.4 86.85-1.8 86.55-2.2 86.55-2.5L86.55-2.5 86.25-7.8Q86.2-8.65 86.15-9.98 86.1-11.3 85.95-13.05L85.95-13.05ZM100.54 1.1Q96.34 1.1 95.19-2.5L95.19-2.5Q95.59-2.5 96.27-2.48 96.94-2.45 97.39-2.35L97.39-2.35Q98.09-2.25 98.39-2.25L98.39-2.25Q100.64-2.25 102.14-4.25L102.14-4.25Q103.19-5.7 103.19-7.2L103.19-7.2Q103.19-8.2 102.69-9.15L102.69-9.15Q101.59-11.1 99.99-13.45L99.99-13.45Q98.94-15 98.09-16.4L98.09-16.4Q97.09-18 97.09-19.95L97.09-19.95Q97.09-21.75 98.12-23.13 99.14-24.5 101.14-24.85L101.14-24.85 102.74-25.15Q105.34-25.65 106.64-25.65L106.64-25.65Q108.79-25.65 110.44-24.65L110.44-24.65Q110.79-24.4 111.17-23.78 111.54-23.15 111.74-22.8L111.74-22.8Q111.39-22.65 110.77-22.33 110.14-22 109.69-21.95L109.69-21.95Q108.99-21.85 107.59-21.85L107.59-21.85Q106.24-21.85 105.54-21.8L105.54-21.8Q103.94-21.65 103.02-20.73 102.09-19.8 102.09-18.5L102.09-18.5Q102.09-17.5 102.69-16.45L102.69-16.45Q104.04-14.2 106.44-11.3L106.44-11.3Q108.24-9.05 108.24-6.65L108.24-6.65Q108.24-5.35 107.64-3.9L107.64-3.9Q105.59 1.1 100.54 1.1L100.54 1.1ZM112.69-18.65Q112.34-19.05 112.22-19.5 112.09-19.95 111.99-20.75L111.99-20.75Q112.44-21.8 113.64-21.8L113.64-21.8Q114.24-21.7 114.49-21.7L114.49-21.7Q115.49-21.7 115.74-22.3 115.99-22.9 115.99-23.7 115.99-24.5 115.99-24.95L115.99-24.95 116.14-27.95Q116.19-28.95 116.27-30.43 116.34-31.9 116.44-33.85L116.44-33.85Q116.49-34.9 116.97-35.4 117.44-35.9 118.29-35.9L118.29-35.9Q118.89-35.9 119.24-35.8L119.24-35.8Q121.29-35.35 121.99-34.5 122.69-33.65 122.94-31.95L122.94-31.95Q122.99-31.6 122.84-30.5L122.84-30.5 121.94-22.7Q121.89-22.4 121.79-21.98 121.69-21.55 121.69-21.35L121.69-21.35Q121.69-20.9 122.19-20.75 122.69-20.6 124.04-20.65L124.04-20.65Q126.34-21.15 127.54-21.3L127.54-21.3Q127.79-21.35 128.34-21.35L128.34-21.35Q128.94-21.35 129.14-21.2L129.14-21.2Q129.34-21.1 129.47-20.63 129.59-20.15 129.59-19.55L129.59-19.55Q129.59-19 129.47-18.55 129.34-18.1 129.14-18.05L129.14-18.05Q127.79-17.65 125.94-17.4L125.94-17.4Q123.74-17 122.69-16.7L122.69-16.7Q122.14-16.55 121.59-15.95 121.04-15.35 120.99-14.85L120.99-14.85Q120.89-12.4 120.84-9.85L120.84-9.85Q120.79-7.9 120.99-5.95L120.99-5.95Q121.14-4.3 121.64-3.58 122.14-2.85 123.14-2.85L123.14-2.85Q123.94-2.85 125.44-3.4L125.44-3.4Q126.24-3.75 126.84-3.75L126.84-3.75Q127.79-3.75 128.19-2.7L128.19-2.7Q128.34-2.35 128.34-2L128.34-2Q128.34-1.35 127.87-0.95 127.39-0.55 126.59-0.25L126.59-0.25Q125.09 0.3 123.54 0.35L123.54 0.35Q121.44 0.35 119.59-0.68 117.74-1.7 116.67-3.55 115.59-5.4 115.74-7.8L115.74-7.8Q115.79-8.75 115.79-10.8L115.79-10.8Q115.79-14.05 115.54-17.4L115.54-17.4Q115.49-17.7 115.19-17.82 114.89-17.95 114.19-18.1L114.19-18.1Q113.04-18.3 112.69-18.65L112.69-18.65ZM144.44-3.35Q142.89-2.4 140.89-2.4L140.89-2.4Q138.69-2.4 136.66-3.53 134.64-4.65 133.44-6.75 132.24-8.85 132.44-11.55L132.44-11.55 132.69-12.75Q132.99-14.55 133.19-15.4L133.19-15.4Q133.64-17.25 134.99-18 136.34-18.75 138.59-19.2L138.59-19.2Q140.04-19.5 141.44-19.5L141.44-19.5Q145.84-19.5 148.84-16.55L148.84-16.55Q150.44-14.95 150.44-12.65L150.44-12.65Q150.44-10.4 148.79-7.8L148.79-7.8Q146.89-4.85 144.44-3.35L144.44-3.35ZM140.24-16.95Q139.44-15 138.54-12.1L138.54-12.1 138.04-10.6 138.39-10.45Q138.39-10.1 138.41-9.38 138.44-8.65 138.59-8.15L138.59-8.15Q139.14-6.6 139.84-6.25L139.84-6.25Q140.14-6.1 140.71-6.4 141.29-6.7 141.74-7.1L141.74-7.1Q142.44-7.7 143.99-9.6L143.99-9.6Q145.14-10.9 145.14-12.7L145.14-12.7Q145.14-14.25 144.26-15.5 143.39-16.75 141.84-17.2L141.84-17.2Q141.69-17.25 141.29-17.25L141.29-17.25Q140.34-17.25 140.24-16.95L140.24-16.95ZM162.34-18.85Q162.34-18.55 162.24-18.07 162.14-17.6 162.19-17.45L162.19-17.45Q165.64-18.2 168.03-18.2L168.03-18.2Q171.79-18.2 173.69-14.6L173.69-14.6Q175.24-11.55 175.24-7.85L175.24-7.85Q175.24-6.9 175.04-5.1L175.04-5.1Q174.89-3.9 174.09-3.18 173.29-2.45 172.19-2.45L172.19-2.45Q171.04-2.45 170.56-2.88 170.09-3.3 170.01-3.85 169.94-4.4 169.94-5.6L169.94-5.6 169.89-6.65Q169.78-9.65 169.49-11.85L169.49-11.85Q169.34-12.75 168.81-13.13 168.28-13.5 167.44-13.5L167.44-13.5Q166.64-13.5 165.53-13.25L165.53-13.25Q163.84-12.8 163.26-12.55 162.69-12.3 161.59-11.5L161.59-11.5Q161.24-11.25 161.09-10.5 160.94-9.75 160.94-9.65L160.94-9.65Q160.28-6.45 159.53-2L159.53-2Q159.49-1.8 159.34-1.05 159.19-0.3 158.76 0.03 158.34 0.35 157.53 0.25L157.53 0.25Q154.39-0.15 154.34-2.4L154.34-2.4Q154.28-5.3 154.78-9.25L154.78-9.25Q155.14-12.1 155.44-13.85L155.44-13.85Q155.53-14.65 155.71-15.8 155.89-16.95 156.03-18.45L156.03-18.45Q156.19-19.6 156.34-20.15 156.49-20.7 157.03-21.08 157.59-21.45 158.74-21.45L158.74-21.45Q160.19-21.45 161.14-20.8 162.09-20.15 162.34-18.95L162.34-18.95 162.34-18.85ZM189.28-7.8Q188.78-7.5 187.83-7.5L187.83-7.5Q187.48-7.5 186.98-7.55 186.48-7.6 186.13-7.55L186.13-7.55Q186.53-5.9 188.03-4.88 189.53-3.85 191.38-3.85L191.38-3.85Q192.98-3.85 194.23-4.55L194.23-4.55Q196.08-5.5 197.43-6.8L197.43-6.8Q198.38-7.75 199.23-7.75L199.23-7.75Q199.78-7.75 200.18-7.2L200.18-7.2Q200.58-6.55 200.58-5.6L200.58-5.6Q200.58-4.6 200.18-4.05L200.18-4.05Q198.88-2.05 196.81-1.3 194.73-0.55 191.98-0.55L191.98-0.55Q189.13-0.55 186.48-1.8 183.83-3.05 181.96-5.23 180.08-7.4 179.48-10.05L179.48-10.05Q179.08-11.6 179.08-13.1L179.08-13.1Q179.08-15.45 180.41-16.9 181.73-18.35 184.68-19.65L184.68-19.65Q187.38-20.8 189.68-20.8L189.68-20.8Q191.33-20.8 192.88-20.3L192.88-20.3Q197.68-18.8 197.68-16.2L197.68-16.2Q197.68-14.55 195.73-12.2L195.73-12.2Q194.78-11.1 193.48-10.25 192.18-9.4 190.96-8.72 189.73-8.05 189.28-7.8L189.28-7.8ZM191.38-17.05Q191.33-17.3 191.01-17.48 190.68-17.65 190.63-17.7L190.63-17.7Q189.28-17.8 187.88-16.93 186.48-16.05 185.56-14.7 184.63-13.35 184.63-12.1L184.63-12.1 184.68-11.7Q184.73-11.5 185.21-11.2 185.68-10.9 185.78-11L185.78-11Q189.33-13.65 191.13-15.25L191.13-15.25Q191.43-15.55 191.43-16.35L191.43-16.35Q191.43-16.85 191.38-17.05L191.38-17.05ZM207.83 1.1Q203.63 1.1 202.48-2.5L202.48-2.5Q202.88-2.5 203.56-2.48 204.23-2.45 204.68-2.35L204.68-2.35Q205.38-2.25 205.68-2.25L205.68-2.25Q207.93-2.25 209.43-4.25L209.43-4.25Q210.48-5.7 210.48-7.2L210.48-7.2Q210.48-8.2 209.98-9.15L209.98-9.15Q208.88-11.1 207.28-13.45L207.28-13.45Q206.23-15 205.38-16.4L205.38-16.4Q204.38-18 204.38-19.95L204.38-19.95Q204.38-21.75 205.41-23.13 206.43-24.5 208.43-24.85L208.43-24.85 210.03-25.15Q212.63-25.65 213.93-25.65L213.93-25.65Q216.08-25.65 217.73-24.65L217.73-24.65Q218.08-24.4 218.46-23.78 218.83-23.15 219.03-22.8L219.03-22.8Q218.68-22.65 218.06-22.33 217.43-22 216.98-21.95L216.98-21.95Q216.28-21.85 214.88-21.85L214.88-21.85Q213.53-21.85 212.83-21.8L212.83-21.8Q211.23-21.65 210.31-20.73 209.38-19.8 209.38-18.5L209.38-18.5Q209.38-17.5 209.98-16.45L209.98-16.45Q211.33-14.2 213.73-11.3L213.73-11.3Q215.53-9.05 215.53-6.65L215.53-6.65Q215.53-5.35 214.93-3.9L214.93-3.9Q212.88 1.1 207.83 1.1L207.83 1.1ZM253.33-35.6Q254.58-35.1 254.58-34.2L254.58-34.2Q254.58-33.3 253.33-31.9L253.33-31.9Q252.78-31.95 251.73-31.95L251.73-31.95Q249.43-31.95 247.33-31.33 245.23-30.7 242.98-29.4L242.98-29.4Q241.93-28.75 241.18-27.75L241.18-27.75Q240.63-27.15 240.63-26.35L240.63-26.35Q240.63-25 242.13-23.75L242.13-23.75Q243.58-22.25 246.88-18.3L246.88-18.3 248.03-17.1Q250.48-14.45 251.9-12.6 253.33-10.75 254.33-8.35L254.33-8.35Q254.73-7.3 254.73-6.45L254.73-6.45Q254.73-4.3 253.08-2.5L253.08-2.5Q251.18-0.4 248.68 0.58 246.18 1.55 243.03 1.8L243.03 1.8Q242.63 1.85 242.08 1.9 241.53 1.95 240.83 1.95L240.83 1.95Q240.38 1.95 239.48 1.85L239.48 1.85Q238.38 1.9 237.18 1.48 235.98 1.05 234.98 0.25L234.98 0.25Q233.08-1.35 233.08-3.3L233.08-3.3Q233.08-4.95 234.48-6.65L234.48-6.65Q235.18-6.55 235.3-6.23 235.43-5.9 235.35-5.5 235.28-5.1 235.28-4.85L235.28-4.85Q235.28-4.7 235.38-4.4L235.38-4.4Q237.33-3.5 240.03-3.5L240.03-3.5Q243.03-3.5 245.7-4.53 248.38-5.55 248.98-7.05L248.98-7.05Q249.33-8.05 247.28-10.58 245.23-13.1 242.68-15.5L242.68-15.5Q240.28-17.65 238.33-19.75L238.33-19.75Q237.23-20.95 236.6-22.53 235.98-24.1 235.98-25.8L235.98-25.8Q235.98-28.1 237.15-30.15 238.33-32.2 240.68-33.5L240.68-33.5Q245.18-36.05 249.88-36.05L249.88-36.05Q250.53-36.05 251.73-35.95L251.73-35.95Q252.83-35.85 253.33-35.6L253.33-35.6ZM258.92-18.65Q258.57-19.05 258.45-19.5 258.32-19.95 258.22-20.75L258.22-20.75Q258.67-21.8 259.87-21.8L259.87-21.8Q260.47-21.7 260.72-21.7L260.72-21.7Q261.72-21.7 261.97-22.3 262.22-22.9 262.22-23.7 262.22-24.5 262.22-24.95L262.22-24.95 262.37-27.95Q262.42-28.95 262.5-30.43 262.57-31.9 262.67-33.85L262.67-33.85Q262.72-34.9 263.2-35.4 263.67-35.9 264.52-35.9L264.52-35.9Q265.12-35.9 265.47-35.8L265.47-35.8Q267.52-35.35 268.22-34.5 268.92-33.65 269.17-31.95L269.17-31.95Q269.22-31.6 269.07-30.5L269.07-30.5 268.17-22.7Q268.12-22.4 268.02-21.98 267.92-21.55 267.92-21.35L267.92-21.35Q267.92-20.9 268.42-20.75 268.92-20.6 270.27-20.65L270.27-20.65Q272.57-21.15 273.77-21.3L273.77-21.3Q274.02-21.35 274.57-21.35L274.57-21.35Q275.17-21.35 275.37-21.2L275.37-21.2Q275.57-21.1 275.7-20.63 275.82-20.15 275.82-19.55L275.82-19.55Q275.82-19 275.7-18.55 275.57-18.1 275.37-18.05L275.37-18.05Q274.02-17.65 272.17-17.4L272.17-17.4Q269.97-17 268.92-16.7L268.92-16.7Q268.37-16.55 267.82-15.95 267.27-15.35 267.22-14.85L267.22-14.85Q267.12-12.4 267.07-9.85L267.07-9.85Q267.02-7.9 267.22-5.95L267.22-5.95Q267.37-4.3 267.87-3.58 268.37-2.85 269.37-2.85L269.37-2.85Q270.17-2.85 271.67-3.4L271.67-3.4Q272.47-3.75 273.07-3.75L273.07-3.75Q274.02-3.75 274.42-2.7L274.42-2.7Q274.57-2.35 274.57-2L274.57-2Q274.57-1.35 274.1-0.95 273.62-0.55 272.82-0.25L272.82-0.25Q271.32 0.3 269.77 0.35L269.77 0.35Q267.67 0.35 265.82-0.68 263.97-1.7 262.9-3.55 261.82-5.4 261.97-7.8L261.97-7.8Q262.02-8.75 262.02-10.8L262.02-10.8Q262.02-14.05 261.77-17.4L261.77-17.4Q261.72-17.7 261.42-17.82 261.12-17.95 260.42-18.1L260.42-18.1Q259.27-18.3 258.92-18.65L258.92-18.65ZM290.67-3.35Q289.12-2.4 287.12-2.4L287.12-2.4Q284.92-2.4 282.9-3.53 280.87-4.65 279.67-6.75 278.47-8.85 278.67-11.55L278.67-11.55 278.92-12.75Q279.22-14.55 279.42-15.4L279.42-15.4Q279.87-17.25 281.22-18 282.57-18.75 284.82-19.2L284.82-19.2Q286.27-19.5 287.67-19.5L287.67-19.5Q292.07-19.5 295.07-16.55L295.07-16.55Q296.67-14.95 296.67-12.65L296.67-12.65Q296.67-10.4 295.02-7.8L295.02-7.8Q293.12-4.85 290.67-3.35L290.67-3.35ZM286.47-16.95Q285.67-15 284.77-12.1L284.77-12.1 284.27-10.6 284.62-10.45Q284.62-10.1 284.65-9.38 284.67-8.65 284.82-8.15L284.82-8.15Q285.37-6.6 286.07-6.25L286.07-6.25Q286.37-6.1 286.95-6.4 287.52-6.7 287.97-7.1L287.97-7.1Q288.67-7.7 290.22-9.6L290.22-9.6Q291.37-10.9 291.37-12.7L291.37-12.7Q291.37-14.25 290.5-15.5 289.62-16.75 288.07-17.2L288.07-17.2Q287.92-17.25 287.52-17.25L287.52-17.25Q286.57-17.25 286.47-16.95L286.47-16.95ZM307.17-21.2Q307.32-20.7 307.22-19.65L307.22-19.65 306.62-13.75Q306.87-13.95 307.37-15.18 307.87-16.4 308.32-17.18 308.77-17.95 309.02-18.2L309.02-18.2Q311.37-20.45 314.32-20.9 317.27-21.35 320.82-21.3L320.82-21.3Q321.17-21.3 321.59-21.03 322.02-20.75 322.02-20.58 322.02-20.4 321.72-20.03 321.42-19.65 321.17-19.55L321.17-19.55Q318.17-18.55 315.89-17.25 313.62-15.95 311.97-13.85L311.97-13.85Q308.07-8.9 307.47-3.65L307.47-3.65Q307.32-2.25 306.62-1.78 305.92-1.3 304.67-1.3L304.67-1.3Q303.27-1.3 302.17-2.5 301.07-3.7 301.07-5.15L301.07-5.15Q301.12-10.45 301.12-21.05L301.12-21.05Q301.12-22.5 301.77-23.08 302.42-23.65 304.12-23.65L304.12-23.65Q305.37-23.65 306.24-22.95 307.12-22.25 307.17-21.2L307.17-21.2ZM331.67-7.8Q331.17-7.5 330.22-7.5L330.22-7.5Q329.87-7.5 329.37-7.55 328.87-7.6 328.52-7.55L328.52-7.55Q328.92-5.9 330.42-4.88 331.92-3.85 333.77-3.85L333.77-3.85Q335.37-3.85 336.62-4.55L336.62-4.55Q338.47-5.5 339.82-6.8L339.82-6.8Q340.77-7.75 341.62-7.75L341.62-7.75Q342.17-7.75 342.57-7.2L342.57-7.2Q342.97-6.55 342.97-5.6L342.97-5.6Q342.97-4.6 342.57-4.05L342.57-4.05Q341.27-2.05 339.19-1.3 337.12-0.55 334.37-0.55L334.37-0.55Q331.52-0.55 328.87-1.8 326.22-3.05 324.34-5.23 322.47-7.4 321.87-10.05L321.87-10.05Q321.47-11.6 321.47-13.1L321.47-13.1Q321.47-15.45 322.79-16.9 324.12-18.35 327.07-19.65L327.07-19.65Q329.77-20.8 332.07-20.8L332.07-20.8Q333.72-20.8 335.27-20.3L335.27-20.3Q340.07-18.8 340.07-16.2L340.07-16.2Q340.07-14.55 338.12-12.2L338.12-12.2Q337.17-11.1 335.87-10.25 334.57-9.4 333.34-8.72 332.12-8.05 331.67-7.8L331.67-7.8ZM333.77-17.05Q333.72-17.3 333.39-17.48 333.07-17.65 333.02-17.7L333.02-17.7Q331.67-17.8 330.27-16.93 328.87-16.05 327.94-14.7 327.02-13.35 327.02-12.1L327.02-12.1 327.07-11.7Q327.12-11.5 327.59-11.2 328.07-10.9 328.17-11L328.17-11Q331.72-13.65 333.52-15.25L333.52-15.25Q333.82-15.55 333.82-16.35L333.82-16.35Q333.82-16.85 333.77-17.05L333.77-17.05Z" opacity="1" transform="matrix(1,0,0,1,0,0)" fill="#ffffff" class="undefined-text-0" data-fill-palette-color="primary" id="text-0"></path></svg></g></svg></g><g transform="matrix(1,0,0,1,0,54.56072135612335)"><svg viewBox="0 0 232.209792 18.104409547546496" height="18.104409547546496" width="232.209792"><g transform="matrix(1,0,0,1,0,0)"><svg width="232.209792" viewBox="1.149999976158142 -36.5 475.80999755859375 37.099998474121094" height="18.104409547546496" data-palette-color="#1c4b82"><path d="M23.4 0L21.05 0Q18.2 0 16.13-1.23 14.05-2.45 12.93-4.58 11.8-6.7 11.8-9.35L11.8-9.35 11.8-30.75 1.15-30.75 1.15-35 27.25-35 27.25-30.75 16.6-30.75 16.6-8.75Q16.6-6.8 17.82-5.53 19.05-4.25 21.1-4.25L21.1-4.25 23.4-4.25 23.4 0ZM34.15 0L29.55 0 29.55-36.5 34.15-36.5 34.15-22.2Q35.7-24.2 37.92-25.15 40.15-26.1 42.55-26.1L42.55-26.1Q45.95-26.1 48.45-24.68 50.95-23.25 52.35-20.7 53.75-18.15 53.75-14.75L53.75-14.75 53.75 0 49.15 0 49.15-14.7Q49.15-17 48.1-18.68 47.05-20.35 45.32-21.25 43.6-22.15 41.65-22.15L41.65-22.15Q39.7-22.15 38-21.28 36.3-20.4 35.22-18.75 34.15-17.1 34.15-14.8L34.15-14.8 34.15 0ZM80.55 0L74 0Q69.8 0 66.55-1.58 63.3-3.15 61.47-6.03 59.65-8.9 59.65-12.75L59.65-12.75Q59.65-16.55 61.2-19.58 62.75-22.6 65.5-24.35 68.25-26.1 71.9-26.1L71.9-26.1Q75.84-26.1 78.47-24.4 81.09-22.7 82.4-19.83 83.7-16.95 83.7-13.4L83.7-13.4Q83.7-12.85 83.67-12.25 83.65-11.65 83.55-11.2L83.55-11.2 64.55-11.2Q64.8-8.85 66.09-7.23 67.4-5.6 69.42-4.78 71.45-3.95 73.9-3.95L73.9-3.95 80.55-3.95 80.55 0ZM64.5-14.45L64.5-14.45 79.05-14.45Q79.05-15.4 78.84-16.48 78.65-17.55 78.15-18.57 77.65-19.6 76.82-20.43 76-21.25 74.77-21.75 73.55-22.25 71.9-22.25L71.9-22.25Q70.15-22.25 68.82-21.58 67.5-20.9 66.55-19.78 65.59-18.65 65.09-17.25 64.59-15.85 64.5-14.45ZM107.74 0L102.94 0 102.94-35 117.69-35Q120.99-35 123.69-33.52 126.39-32.05 127.99-29.4 129.59-26.75 129.59-23.2L129.59-23.2Q129.59-19.75 128.02-17.1 126.44-14.45 123.74-12.95 121.04-11.45 117.59-11.45L117.59-11.45 107.74-11.45 107.74 0ZM107.74-30.75L107.74-15.7 117.04-15.7Q119.19-15.7 120.97-16.57 122.74-17.45 123.77-19.15 124.79-20.85 124.79-23.2L124.79-23.2Q124.79-25.6 123.77-27.28 122.74-28.95 120.97-29.85 119.19-30.75 117.09-30.75L117.09-30.75 107.74-30.75ZM139.64 0L135.04 0 135.04-18.25Q135.04-21.65 136.96-23.58 138.89-25.5 142.29-25.5L142.29-25.5 147.54-25.5 147.54-21.55 143.14-21.55Q141.49-21.55 140.56-20.6 139.64-19.65 139.64-17.95L139.64-17.95 139.64 0ZM171.29 0L164.74 0Q160.54 0 157.29-1.58 154.04-3.15 152.21-6.03 150.39-8.9 150.39-12.75L150.39-12.75Q150.39-16.55 151.94-19.58 153.49-22.6 156.24-24.35 158.99-26.1 162.64-26.1L162.64-26.1Q166.59-26.1 169.21-24.4 171.84-22.7 173.14-19.83 174.44-16.95 174.44-13.4L174.44-13.4Q174.44-12.85 174.41-12.25 174.39-11.65 174.29-11.2L174.29-11.2 155.29-11.2Q155.54-8.85 156.84-7.23 158.14-5.6 160.16-4.78 162.19-3.95 164.64-3.95L164.64-3.95 171.29-3.95 171.29 0ZM155.24-14.45L155.24-14.45 169.79-14.45Q169.79-15.4 169.59-16.48 169.39-17.55 168.89-18.57 168.39-19.6 167.56-20.43 166.74-21.25 165.51-21.75 164.29-22.25 162.64-22.25L162.64-22.25Q160.89-22.25 159.56-21.58 158.24-20.9 157.29-19.78 156.34-18.65 155.84-17.25 155.34-15.85 155.24-14.45ZM195.63 0L192.63 0Q188.68 0 185.58-1.7 182.48-3.4 180.68-6.28 178.88-9.15 178.88-12.75L178.88-12.75Q178.88-16.35 180.68-19.23 182.48-22.1 185.58-23.8 188.68-25.5 192.63-25.5L192.63-25.5 195.63-25.5 195.63-21.55 192.48-21.55Q189.93-21.55 187.91-20.38 185.88-19.2 184.71-17.2 183.53-15.2 183.53-12.75L183.53-12.75Q183.53-10.3 184.71-8.3 185.88-6.3 187.91-5.13 189.93-3.95 192.48-3.95L192.48-3.95 195.63-3.95 195.63 0ZM205.53 0L200.88 0 200.88-25.5 205.53-25.5 205.53 0ZM203.23-29.55L203.23-29.55Q201.98-29.55 201.06-30.48 200.13-31.4 200.13-32.65L200.13-32.65Q200.13-33.9 201.06-34.83 201.98-35.75 203.23-35.75L203.23-35.75Q204.48-35.75 205.41-34.83 206.33-33.9 206.33-32.65L206.33-32.65Q206.33-31.4 205.41-30.48 204.48-29.55 203.23-29.55ZM224.78 0.6L224.78 0.6Q220.88 0.6 217.88-1.18 214.88-2.95 213.13-5.98 211.38-9 211.38-12.75L211.38-12.75Q211.38-16.5 213.13-19.53 214.88-22.55 217.88-24.33 220.88-26.1 224.78-26.1L224.78-26.1Q228.68-26.1 231.7-24.33 234.73-22.55 236.45-19.53 238.18-16.5 238.18-12.75L238.18-12.75Q238.18-9 236.45-5.98 234.73-2.95 231.7-1.18 228.68 0.6 224.78 0.6ZM224.78-3.35L224.78-3.35Q227.43-3.35 229.38-4.6 231.33-5.85 232.43-7.98 233.53-10.1 233.53-12.75L233.53-12.75Q233.53-15.4 232.43-17.53 231.33-19.65 229.38-20.9 227.43-22.15 224.78-22.15L224.78-22.15Q222.18-22.15 220.2-20.9 218.23-19.65 217.13-17.53 216.03-15.4 216.03-12.75L216.03-12.75Q216.03-10.1 217.13-7.98 218.23-5.85 220.2-4.6 222.18-3.35 224.78-3.35ZM256.03 0.6L256.03 0.6Q252.58 0.6 249.85-0.83 247.13-2.25 245.6-4.8 244.08-7.35 244.08-10.75L244.08-10.75 244.08-25.5 248.73-25.5 248.73-10.8Q248.73-8.5 249.73-6.83 250.73-5.15 252.4-4.25 254.08-3.35 255.98-3.35L255.98-3.35Q257.93-3.35 259.6-4.25 261.28-5.15 262.3-6.83 263.33-8.5 263.33-10.8L263.33-10.8 263.33-25.5 267.98-25.5 267.98-10.75Q267.98-7.35 266.43-4.8 264.88-2.25 262.18-0.83 259.48 0.6 256.03 0.6ZM287.67 0L274.92 0 274.92-3.95 287.12-3.95Q288.32-3.95 289.2-4.48 290.07-5 290.52-5.85 290.97-6.7 290.97-7.65L290.97-7.65Q290.97-8.55 290.57-9.33 290.17-10.1 289.35-10.58 288.52-11.05 287.37-11.05L287.37-11.05 282.22-11.05Q279.77-11.05 277.95-11.88 276.12-12.7 275.1-14.3 274.07-15.9 274.07-18.2L274.07-18.2Q274.07-20.15 275.02-21.8 275.97-23.45 277.67-24.48 279.37-25.5 281.57-25.5L281.57-25.5 293.32-25.5 293.32-21.55 282.02-21.55Q280.47-21.55 279.57-20.6 278.67-19.65 278.67-18.35L278.67-18.35Q278.67-17.1 279.6-16.18 280.52-15.25 282.22-15.25L282.22-15.25 287.12-15.25Q289.87-15.25 291.75-14.38 293.62-13.5 294.6-11.85 295.57-10.2 295.57-7.8L295.57-7.8Q295.57-5.75 294.57-3.98 293.57-2.2 291.8-1.1 290.02 0 287.67 0L287.67 0ZM330.57 0L314.87 0 314.87-4.25 330.02-4.25Q331.77-4.25 333.02-5.08 334.27-5.9 334.97-7.2 335.67-8.5 335.67-9.95L335.67-9.95Q335.67-11.45 334.99-12.73 334.32-14 333.09-14.78 331.87-15.55 330.12-15.55L330.12-15.55 323.52-15.55Q320.57-15.55 318.32-16.78 316.07-18 314.79-20.18 313.52-22.35 313.52-25.1L313.52-25.1Q313.52-27.9 314.74-30.15 315.97-32.4 318.19-33.7 320.42-35 323.32-35L323.32-35 338.17-35 338.17-30.75 323.77-30.75Q322.12-30.75 320.87-29.98 319.62-29.2 318.97-27.98 318.32-26.75 318.32-25.35L318.32-25.35Q318.32-24 318.94-22.78 319.57-21.55 320.79-20.8 322.02-20.05 323.62-20.05L323.62-20.05 330.37-20.05Q333.52-20.05 335.77-18.8 338.02-17.55 339.22-15.4 340.42-13.25 340.42-10.5L340.42-10.5Q340.42-7.45 339.19-5.08 337.97-2.7 335.72-1.35 333.47 0 330.57 0L330.57 0ZM360.92 0L354.92 0Q351.52 0 349.59-1.95 347.67-3.9 347.67-7.25L347.67-7.25 347.67-31.9 352.27-31.9 352.27-7.55Q352.27-5.9 353.19-4.93 354.12-3.95 355.77-3.95L355.77-3.95 360.92-3.95 360.92 0ZM361.02-21.55L343.27-21.55 343.27-25.5 361.02-25.5 361.02-21.55ZM377.76 0.6L377.76 0.6Q373.86 0.6 370.86-1.18 367.86-2.95 366.11-5.98 364.36-9 364.36-12.75L364.36-12.75Q364.36-16.5 366.11-19.53 367.86-22.55 370.86-24.33 373.86-26.1 377.76-26.1L377.76-26.1Q381.66-26.1 384.69-24.33 387.71-22.55 389.44-19.53 391.16-16.5 391.16-12.75L391.16-12.75Q391.16-9 389.44-5.98 387.71-2.95 384.69-1.18 381.66 0.6 377.76 0.6ZM377.76-3.35L377.76-3.35Q380.41-3.35 382.36-4.6 384.31-5.85 385.41-7.98 386.51-10.1 386.51-12.75L386.51-12.75Q386.51-15.4 385.41-17.53 384.31-19.65 382.36-20.9 380.41-22.15 377.76-22.15L377.76-22.15Q375.16-22.15 373.19-20.9 371.21-19.65 370.11-17.53 369.01-15.4 369.01-12.75L369.01-12.75Q369.01-10.1 370.11-7.98 371.21-5.85 373.19-4.6 375.16-3.35 377.76-3.35ZM401.66 0L397.06 0 397.06-14.75Q397.06-18.15 398.59-20.7 400.11-23.25 402.81-24.68 405.51-26.1 408.96-26.1L408.96-26.1Q412.46-26.1 415.14-24.68 417.81-23.25 419.34-20.7 420.86-18.15 420.86-14.75L420.86-14.75 420.86 0 416.26 0 416.26-14.7Q416.26-17 415.24-18.68 414.21-20.35 412.54-21.25 410.86-22.15 408.96-22.15L408.96-22.15Q407.06-22.15 405.39-21.25 403.71-20.35 402.69-18.68 401.66-17 401.66-14.7L401.66-14.7 401.66 0ZM447.66 0L441.11 0Q436.91 0 433.66-1.58 430.41-3.15 428.58-6.03 426.76-8.9 426.76-12.75L426.76-12.75Q426.76-16.55 428.31-19.58 429.86-22.6 432.61-24.35 435.36-26.1 439.01-26.1L439.01-26.1Q442.96-26.1 445.58-24.4 448.21-22.7 449.51-19.83 450.81-16.95 450.81-13.4L450.81-13.4Q450.81-12.85 450.78-12.25 450.76-11.65 450.66-11.2L450.66-11.2 431.66-11.2Q431.91-8.85 433.21-7.23 434.51-5.6 436.53-4.78 438.56-3.95 441.01-3.95L441.01-3.95 447.66-3.95 447.66 0ZM431.61-14.45L431.61-14.45 446.16-14.45Q446.16-15.4 445.96-16.48 445.76-17.55 445.26-18.57 444.76-19.6 443.93-20.43 443.11-21.25 441.88-21.75 440.66-22.25 439.01-22.25L439.01-22.25Q437.26-22.25 435.93-21.58 434.61-20.9 433.66-19.78 432.71-18.65 432.21-17.25 431.71-15.85 431.61-14.45ZM469.06 0L456.31 0 456.31-3.95 468.51-3.95Q469.71-3.95 470.58-4.48 471.46-5 471.91-5.85 472.36-6.7 472.36-7.65L472.36-7.65Q472.36-8.55 471.96-9.33 471.56-10.1 470.73-10.58 469.91-11.05 468.76-11.05L468.76-11.05 463.61-11.05Q461.16-11.05 459.33-11.88 457.51-12.7 456.48-14.3 455.46-15.9 455.46-18.2L455.46-18.2Q455.46-20.15 456.41-21.8 457.36-23.45 459.06-24.48 460.76-25.5 462.96-25.5L462.96-25.5 474.71-25.5 474.71-21.55 463.41-21.55Q461.86-21.55 460.96-20.6 460.06-19.65 460.06-18.35L460.06-18.35Q460.06-17.1 460.98-16.18 461.91-15.25 463.61-15.25L463.61-15.25 468.51-15.25Q471.26-15.25 473.13-14.38 475.01-13.5 475.98-11.85 476.96-10.2 476.96-7.8L476.96-7.8Q476.96-5.75 475.96-3.98 474.96-2.2 473.18-1.1 471.41 0 469.06 0L469.06 0Z" opacity="1" transform="matrix(1,0,0,1,0,0)" fill="#ffffff" class="undefined-text-1" data-fill-palette-color="secondary" id="text-1"></path></svg></g></svg></g></svg></g></svg></g><g><svg viewBox="0 0 100.42217176562623 100.42321090887174" height="100.42321090887174" width="100.42217176562623"><g><svg xmlns="http://www.w3.org/2000/svg" xmlns:xlink="http://www.w3.org/1999/xlink" version="1.1" x="0" y="0" viewBox="2.1510000228881836 2.1500015258789062 95.84900665283203 95.8499984741211" enable-background="new 0 0 100 100" xml:space="preserve" height="100.42321090887174" width="100.42217176562623" class="icon-icon-0" data-fill-palette-color="accent" id="icon-0"><g fill="#1c4b82" data-fill-palette-color="accent"><path fill="#ffffff" d="M98 50.075C98 76.543 76.542 98 50.075 98 23.606 98 2.151 76.543 2.151 50.075c0-26.468 21.456-47.925 47.924-47.925C76.542 2.15 98 23.607 98 50.075zM49.797 6.185c-24.373 0-44.133 19.758-44.133 44.131 0 24.375 19.76 44.133 44.133 44.133S93.93 74.691 93.93 50.316C93.93 25.943 74.17 6.185 49.797 6.185z" data-fill-palette-color="accent"></path><path fill="#ffffff" d="M90.862 50.438c0 22.613-18.331 40.945-40.944 40.945-22.614 0-40.945-18.332-40.945-40.945 0-22.614 18.332-40.945 40.945-40.945C72.531 9.493 90.862 27.825 90.862 50.438zM21.963 34.746l-8.713 3.712 4.68 8.552-6.778 7.423 8.068 5.97-3.066 9.198 9.681 2.258 1.131 9.683 9.843-1.776 4.679 8.231 8.229-5.811 8.067 5.811 4.843-8.393 9.681 2.259 1.131-10.329 9.844-1.771-3.067-9.521 8.067-5.809-6.454-7.262 4.519-8.875-9.037-3.873 1.129-9.843-10.166-0.162-2.904-9.52-9.197 3.872-6.454-7.1-6.454 7.262-9.197-4.034-3.228 9.52-9.843-0.323L21.963 34.746z" data-fill-palette-color="accent"></path><path fill="#ffffff" d="M76.019 60.886l2.098 5.809-6.132 1.13-10.166-7.906-1.291 1.452 8.876 9.519-0.322 5.973-5.971-1.454L57.001 63.82c-0.675 0.37-1.38 0.693-2.111 0.963l4.671 12.562-3.229 4.841-4.355-3.389-1.265-13.12c-0.382 0.031-0.769 0.05-1.156 0.05s-0.77-0.019-1.15-0.047l-0.624 13.278-4.841 3.551-3.066-5.002 4.348-12.723c-0.708-0.261-1.391-0.568-2.047-0.924l-5.852 11.547-5.809 1.292-0.646-5.486 8.913-9.851c-0.566-0.549-1.092-1.14-1.57-1.769l-10.085 8.068-5.809-0.967 1.613-5.648 12.263-5.002h0.001c-0.312-0.77-0.563-1.569-0.748-2.394l-12.646 3.2-4.518-3.388 3.549-4.035h13.253c0.032-0.624 0.105-1.24 0.209-1.843l-0.068-0.092-13.071-2.905-2.42-4.357 5.325-2.582 11.664 5.611c0.264-0.522 0.555-1.027 0.875-1.514L26.158 34.1l-0.484-5.647h5.809l7.906 9.521c0 0 0.21 0.074 0.498 0.165 0.478-0.383 0.978-0.738 1.5-1.063-0.114-0.391-0.222-0.717-0.222-0.717L34.71 26.354l1.453-5.809 5.325 2.098 4.246 12.578c0.531-0.134 1.073-0.24 1.625-0.317l-1.354-13.067 3.712-4.034 3.712 3.872L52.007 34.94c0.646 0.103 1.274 0.246 1.891 0.426l3.565-12.401 5.486-2.743 1.937 5.971-6.779 10.488 1.776 1.614 8.23-9.682h5.81L73.438 34.1l-10.489 7.261 0.161 1.292c0 0-0.006 0.022-0.016 0.058 0.146 0.264 0.288 0.532 0.423 0.805 1.75-0.791 11.856-5.704 11.856-5.704l5.325 2.582c0 0-1.936 4.68-2.42 4.68-0.426 0-10.897 1.985-13.471 2.474 0.126 0.717 0.203 1.451 0.227 2.198l13.403-0.154 3.712 4.197-4.681 3.387-12.85-3.331c-0.186 0.776-0.428 1.532-0.727 2.256L76.019 60.886zM49.879 38.618c-1.157 0-2.098 0.94-2.098 2.098 0 1.159 0.94 2.099 2.098 2.099s2.098-0.939 2.098-2.099C51.977 39.558 51.036 38.618 49.879 38.618zM56.494 41.361c-1.158 0-2.097 0.94-2.097 2.098 0 1.159 0.938 2.099 2.097 2.099 1.159 0 2.099-0.94 2.099-2.099C58.593 42.301 57.653 41.361 56.494 41.361zM59.399 48.138c-1.158 0-2.097 0.941-2.097 2.098 0 1.158 0.938 2.097 2.097 2.097 1.159 0 2.099-0.938 2.099-2.097C61.498 49.079 60.559 48.138 59.399 48.138zM56.655 54.916c-1.157 0-2.098 0.939-2.098 2.097 0 1.16 0.94 2.097 2.098 2.097 1.159 0 2.099-0.938 2.099-2.097C58.754 55.855 57.814 54.916 56.655 54.916zM49.879 57.98c-1.157 0-2.098 0.941-2.098 2.1 0 1.157 0.94 2.097 2.098 2.097s2.098-0.939 2.098-2.097C51.977 58.922 51.036 57.98 49.879 57.98zM43.263 54.916c-1.159 0-2.097 0.939-2.097 2.097 0 1.16 0.938 2.097 2.097 2.097 1.159 0 2.098-0.937 2.098-2.097C45.361 55.855 44.422 54.916 43.263 54.916zM40.197 48.138c-1.159 0-2.097 0.941-2.097 2.098 0 1.158 0.938 2.097 2.097 2.097 1.159 0 2.098-0.938 2.098-2.097C42.295 49.079 41.356 48.138 40.197 48.138zM42.779 41.361c-1.159 0-2.097 0.94-2.097 2.098 0 1.159 0.938 2.099 2.097 2.099s2.097-0.94 2.097-2.099C44.876 42.301 43.938 41.361 42.779 41.361zM49.717 47.494c-1.516 0-2.742 1.227-2.742 2.743 0 1.515 1.227 2.741 2.742 2.741s2.742-1.227 2.742-2.741C52.459 48.721 51.232 47.494 49.717 47.494z" data-fill-palette-color="accent"></path></g></svg></g></svg></g></svg></g><defs></defs></svg><rect width="395.52" height="76.2714228078841" fill="none" stroke="none" visibility="hidden"></rect></g></svg></g></svg>